<svg width="500" height="500" viewBox="0 0 386 388" fill="none" xmlns="http://www.w3.org/2000/svg" stroke="black" stroke-width="4">
<path fill="whitesmoke" d="M170.325 386.905C136.671 382.983 103.188 369.295 75.5 348.138C67.2473 341.832 50.9557 325.966 43.9311 317.395C15.5827 282.804 -0.0111495 238.892 0.0046201 193.699C0.00931677 180.239 2.42709 160.012 5.47709 147.916C18.7198 95.397 52.1292 51.1227 98.2833 24.9288C178.213 -20.4341 279.698 -2.05212 338.834 68.5C380.134 117.772 394.608 184.21 377.548 246.205C354.382 330.388 277.691 388.689 191.199 387.87C183.664 387.799 174.271 387.364 170.325 386.905ZM259.755 372.455C278.892 365.482 299.929 352.753 318.862 336.688C332.858 324.813 347.104 306.884 359.486 285.561C367.132 272.395 367.727 269.718 363.695 266.657C360.92 264.55 360.854 264.548 357.695 266.412C351.584 270.018 343.492 273.975 342.203 273.987C341.49 273.994 340.146 272.673 339.215 271.052C335.886 265.251 330.032 264.532 322.5 269C316.359 272.643 315.452 272.671 310.592 269.369L306.72 266.738L302.333 268.869C296.576 271.666 295.229 271.561 293.28 268.165L291.653 265.33L284.576 268.841C280.684 270.773 275.485 272.611 273.021 272.926C269.103 273.428 268.436 273.875 267.692 276.5C267.224 278.15 266.375 280.85 265.806 282.5C263.671 288.69 263.704 290.679 265.965 292.263L268.121 293.773L264.391 299.636C260.521 305.723 256.554 310.649 246.705 321.602C243.136 325.57 241.192 328.517 241.643 329.273C242.046 329.948 245.269 333.737 248.805 337.693C255.344 345.008 258.718 347 264.567 347C274.285 347 273.319 349.957 258.75 364.809C252.012 371.677 247.4 376.966 248.5 376.562C249.6 376.157 254.665 374.309 259.755 372.455ZM252 294C254.375 291.625 254.812 289.081 252.519 290.985C251.333 291.969 250.023 291.849 245.959 290.388C243.167 289.384 240.415 287.999 239.843 287.311C239.272 286.623 238.677 283.191 238.521 279.685C238.167 271.76 236.918 269.341 232.758 268.519C223.517 266.693 222.428 265.169 223.461 255.521C224.282 247.855 222.953 245.992 216.679 246.015C211.352 246.035 210.437 246.694 209.629 251.09C208.657 256.379 204.995 259.423 200.484 258.691C195.511 257.884 188.059 252.266 184.652 246.755C181.87 242.255 181.819 241.921 182.513 232.662L183.225 223.178L187.67 219.985C190.115 218.229 194.677 216.192 197.808 215.459C203.037 214.233 203.769 214.282 206.807 216.062C210.888 218.453 211 218.453 211 216.059C211 213.417 211.776 213.076 221.255 211.544C225.79 210.811 230.478 209.896 231.674 209.509C233.414 208.947 234.137 209.375 235.291 211.653C236.084 213.219 237.036 216.075 237.407 218C237.778 219.925 239.363 222.998 240.929 224.828L243.777 228.157L245.388 225.856C247.657 222.617 247.396 218.32 244.5 211.192C243.125 207.808 242 204.29 242 203.373C242 201.64 247.122 194.893 252.747 189.217C255.478 186.46 256 185.189 256 181.295C256 178.367 255.385 175.978 254.331 174.813C252.767 173.085 252.78 172.881 254.538 171.596C255.57 170.841 256.916 168.711 257.529 166.862C258.303 164.528 260.379 162.298 264.314 159.57C269.655 155.868 269.889 155.535 268.352 153.836C266.834 152.159 266.887 151.783 269.11 148.455C271.226 145.288 271.879 144.936 274.808 145.385C279.627 146.125 280.936 145.252 281.644 140.828C282.19 137.408 282.792 136.667 286.095 135.345C289.543 133.966 289.858 133.539 289.339 130.946C288.035 124.427 289.707 122.691 299.351 120.545L302.202 119.911L296.678 115.956C293.64 113.78 290.934 112 290.667 112C290.399 112 288.361 114.878 286.14 118.396C282.338 124.415 277.563 129 275.096 129C274.493 129 274 128.587 274 128.082C274 127.577 273.734 126.472 273.41 125.626C273.033 124.643 274.45 122.434 277.339 119.504C285.588 111.137 284.448 105.912 273.28 100.901C268.543 98.7759 265.054 96.2092 260.807 91.7253C256.693 87.3824 255.1 86.1949 255.538 87.798C255.883 89.0619 255.631 90.7399 254.978 91.527C253.485 93.326 250.968 92.1657 245.931 87.3553C243.071 84.625 241.101 83.7441 236.024 82.9265C227.594 81.5688 225.623 82.3267 229.514 85.4296C232.044 87.4465 232.259 87.9832 231.099 89.3808C230.008 90.6949 229.99 91.5608 231 93.9991C231.683 95.6496 232.566 97 232.961 97C233.949 97 236 101.684 236 103.94C236 104.955 235.321 106.046 234.492 106.365C233.238 106.846 233.094 108.377 233.64 115.472C234.087 121.294 233.954 124 233.22 124C231.683 124 228.067 119.136 227.338 116.088C226.998 114.664 226.096 112.262 225.334 110.75C224.14 108.38 223.344 108 219.576 108C216.651 108 213.314 107.006 209.5 105C206.363 103.35 202.985 102 201.992 102C200.741 102 199.706 100.587 198.617 97.3905C196.839 92.1716 197.167 91.0961 202.583 84.3917C206.243 79.8613 209.027 78.4766 216.489 77.4753L221.477 76.8059L218.619 75.3083C216.186 74.0334 215.966 73.6051 217.144 72.4277C217.904 71.667 219.946 70.7609 221.68 70.4141C224.418 69.8664 224.876 70.0807 225.166 72.0447C225.439 73.8903 226.695 74.6428 232 76.1385C245.37 79.9076 248.108 78.772 248.318 69.3709C248.433 64.2542 248.028 62.8878 245.166 58.7346C241.569 53.5134 239.021 51.5098 234.594 50.4203C232.389 49.8775 231.373 50.1369 230.379 51.496C229.317 52.9482 228.165 53.1776 224.285 52.7093C221.653 52.3917 217.813 51.4211 215.75 50.5525C212.495 49.1815 212 48.5383 212 45.6777C212 43.8652 212.605 41.5554 213.344 40.5449C214.641 38.7711 214.926 38.7866 221.594 40.9928C240.872 47.3717 241.312 47.6252 253.976 59.6394C260.522 65.8499 266.927 71.1946 268.21 71.5165C269.492 71.8384 273.594 71.9664 277.324 71.8009L284.107 71.5L277.221 64.4964C271.609 58.7889 270.211 56.7195 269.666 53.3141C269.299 51.0158 269.391 48.0924 269.871 46.8177C271.322 42.9674 269.596 40.3909 264.372 38.6109C261.742 37.7148 256.617 35.1857 252.984 32.9906C247.107 29.4396 241.527 27.5765 227.715 24.5537C226.044 24.1881 224.568 22.9937 224.026 21.5692C223.53 20.263 222.646 18.899 222.062 18.5381C221.478 18.1772 221 17.1754 221 16.3118C221 14.966 222.036 14.8399 228.25 15.4293C235.256 16.094 235.42 16.0599 233.127 14.4158C230.041 12.203 221.578 8.99999 218.818 8.99999C217.63 8.99999 213.923 7.68513 210.579 6.07807L204.5 3.15616L190 5.06317C182.025 6.11203 172.35 6.90371 168.5 6.82246C160.867 6.66138 157.203 7.98757 153.076 12.405C151.297 14.3085 149.649 15 146.891 15C141.041 15 138.012 16.6088 131 23.44C124.469 29.8024 122.69 30.705 110 34.0901L105.5 35.2905L113 36.7682C117.125 37.5809 122.135 38.303 124.134 38.3729C126.684 38.4621 128.618 39.3486 130.613 41.3428C135.28 46.0056 138.474 47.2403 142.777 46.0451C148.211 44.5358 153.102 44.7574 154.43 46.5731C155.456 47.9765 156.427 47.8098 163.432 45.0271C173.45 41.0474 176.726 41.6025 167.741 45.7572C160.501 49.1053 160.407 49.2222 159.567 55.9096C159.263 58.3348 158.795 60.5385 158.527 60.8065C158.259 61.0746 155.163 59.8778 151.647 58.147C148.131 56.4161 144.453 55 143.474 55C142.494 55 140.074 53.2509 138.096 51.113C135.372 48.1686 132.838 46.7137 127.645 45.113C116.638 41.7204 111.816 42.8251 119.817 46.9066C123.998 49.0399 126.652 51.681 125.636 52.6976C125.279 53.0547 122.881 52.6931 120.308 51.8941C116.978 50.8598 115.159 49.5857 113.994 47.4707C110.813 41.6944 103.513 40.0742 98.0848 43.9396C95.0324 46.1131 92.8697 46.2586 88.8521 44.5608C87.7807 44.108 86.469 44.6536 85.1021 46.1208C82.4265 48.9927 82.4603 49.3732 85.537 51.0198C86.9323 51.7665 87.9351 53.0801 87.7653 53.9388C87.5215 55.1718 86.0163 55.5 80.6047 55.5C75.4953 55.5 73.5727 55.8815 73.0449 57C72.6556 57.825 71.5863 59.999 70.6686 61.831C68.1033 66.9522 68.5113 68.8979 72.5 70.5644C76.2547 72.1332 77.3853 74.5955 73.937 73.6937C72.8023 73.397 69.9898 74.0097 67.687 75.0552C65.3841 76.1007 62.2891 76.9659 60.809 76.978C59.329 76.9901 57.8271 77.4707 57.4716 78.046C57.03 78.7605 58.5169 78.8425 62.1625 78.3046C65.0982 77.8715 69.75 77.5133 72.5 77.5086C76.6495 77.5014 77.5918 77.1598 78.0396 75.5C78.9567 72.1003 82.9597 72.5929 90.2713 77.0053C93.9955 79.2529 97.5532 80.7762 98.1772 80.3905C98.9977 79.8834 99.1481 81.2763 98.7204 85.4203C98.1624 90.8268 98.3236 91.4065 101.565 95.6527C103.454 98.1283 105.279 101.265 105.62 102.623C106.2 104.933 106.357 104.987 108.042 103.462C109.721 101.943 109.947 101.991 111.365 104.166C112.201 105.45 114.352 109.641 116.144 113.479C118.852 119.277 119.363 121.477 119.169 126.479C118.971 131.542 118.456 133.057 115.928 136C114.275 137.925 111.83 141.757 110.495 144.515C108.302 149.047 108.057 150.89 107.944 163.663C107.816 178.268 108.465 181.378 111.867 182.458C115.557 183.629 116.831 186.402 117.858 195.5C119.302 208.298 126.773 229.122 131.76 234.25C135.968 238.578 136.622 238.766 137.528 235.911C138.004 234.413 137.294 232.705 135.02 229.875C132.54 226.789 131.738 224.682 131.342 220.214C131.064 217.071 130.004 212.25 128.986 209.5C125.075 198.927 126.21 200 133.011 213.304C138.667 224.368 140.747 227.508 143.487 229.125C146.505 230.905 147.269 232.282 149.983 240.821C152.768 249.584 153.547 250.949 158.213 255.243C162.848 259.51 175.064 266.549 183.785 269.98C186.61 271.091 187.609 271.029 190.905 269.543L194.739 267.814L199.393 271.366C204.595 275.337 209.407 276.986 215.816 276.994C221.329 277.002 224 278.447 224 281.424C224 284.921 226.661 287.45 235 291.877C243.641 296.464 248.881 297.119 252 294ZM264 252.5C264 250.867 258.537 250.322 257.586 251.861C256.754 253.208 258.079 254 261.167 254C263.019 254 264 253.48 264 252.5ZM286.147 248.866C289.366 247.692 292 246.379 292 245.948C292 245.516 292.272 244.454 292.605 243.586C293.124 242.234 292.518 242.1 288.355 242.645C281.443 243.55 278 245.505 278 248.526C278 251.543 278.723 251.573 286.147 248.866ZM271.274 245.215C272.249 244.353 272.675 243.275 272.221 242.821C271.395 241.995 257.836 239.786 255 240.015C254.175 240.081 249.563 240.085 244.75 240.024C239.938 239.962 236.007 240.269 236.015 240.706C236.082 244.18 241.421 246.133 248.769 245.372C252.863 244.948 255.5 245.221 258 246.33C262.079 248.14 268.582 247.593 271.274 245.215ZM302.234 241.94C304.756 239.578 305.044 238.988 303.5 239.353C302.4 239.613 299.769 240.118 297.653 240.476C293.921 241.108 293.858 241.185 295.558 243.064C297.874 245.624 298.397 245.536 302.234 241.94ZM376.966 149.866C371.503 128.464 361.784 103.816 359.649 105.951C359.085 106.515 358.596 110.919 358.562 115.738C358.508 123.333 358.85 125.166 361.128 129.5C362.574 132.25 365.512 137.875 367.658 142C372.007 150.36 377.95 159.384 378.647 158.686C378.897 158.436 378.141 154.467 376.966 149.866ZM355.964 99.5431C356.951 98.3547 356.024 96.3741 350.934 88.7931C339.967 72.4593 334.089 65.2606 323.674 55.4119C304.054 36.8594 286.079 24.979 263.03 15.3286C256.171 12.457 250.4 10.2665 250.206 10.4608C249.673 10.9935 252.908 17.0613 255.74 20.8434C257.952 23.7972 258.667 24.1309 261.872 23.7069C263.867 23.443 266.442 22.9168 267.594 22.5377C269.244 21.9946 271.47 23.3567 278.094 28.9629C286.177 35.804 297.093 41.983 303.634 43.4196C306.78 44.1105 309.885 46.814 311.786 50.5179C312.754 52.4041 312.558 52.5107 308.779 52.1503C304.408 51.7334 304.402 51.7946 308.342 57.2065C310.479 60.1432 315.17 62.2559 317.536 61.3478C319.778 60.4875 323.814 63.6202 325.422 67.4682C326.604 70.297 327.699 71.1419 331.677 72.2953C336.843 73.7928 338.959 76.3665 338.985 81.1849C338.993 82.6616 339.471 85.1093 340.047 86.6244C341.76 91.1285 351.258 100.803 354.128 100.965C354.473 100.984 355.299 100.344 355.964 99.5431ZM71.0201 85.4758C71.7158 84.6375 72.0344 83.7011 71.7282 83.3948C70.9629 82.6295 67 84.8425 67 86.0352C67 87.5347 69.6131 87.1711 71.0201 85.4758ZM53.7912 77.145C54.122 76.1389 53.6269 75.9748 51.8683 76.5074C48.0471 77.6648 47.0906 79.1997 50.4229 78.8269C52.0305 78.6471 53.5462 77.8903 53.7912 77.145Z"/>
</svg>
